<?xml version="1.0" standalone="no"?>
<!DOCTYPE svg PUBLIC "-//W3C//DTD SVG 20010904//EN"
 "http://www.w3.org/TR/2001/REC-SVG-20010904/DTD/svg10.dtd">
<svg version="1.0" xmlns="http://www.w3.org/2000/svg"
 width="2048.000000pt" height="2048.000000pt" viewBox="0 0 2048.000000 2048.000000"
 preserveAspectRatio="xMidYMid meet">

<g transform="translate(0.000000,2048.000000) scale(0.100000,-0.100000)"
fill="#000000" stroke="none">
<path d="M11065 13065 c-122 -33 -216 -94 -303 -197 -94 -112 -173 -302 -188
-455 l-7 -63 -89 0 c-102 0 -141 -14 -156 -58 -13 -38 6 -83 42 -100 15 -6 67
-12 115 -12 l89 0 6 -47 c36 -255 187 -497 366 -588 116 -59 263 -72 383 -35
216 67 403 315 448 597 l12 73 134 0 c170 0 203 14 203 85 0 71 -33 85 -203
85 l-134 0 -6 63 c-25 251 -178 507 -363 604 -110 59 -243 77 -349 48z m256
-188 c144 -69 259 -259 294 -484 l7 -43 -441 0 -441 0 0 32 c0 91 70 273 141
365 116 150 289 201 440 130z m285 -748 c-19 -141 -118 -322 -219 -399 -71
-53 -127 -73 -212 -74 -139 -1 -271 93 -354 254 -38 72 -81 206 -81 252 0 17
19 18 436 18 l437 0 -7 -51z"/>
</g>
</svg>
