<?xml version="1.0" encoding="UTF-8" standalone="no"?>
<svg
   version="1.1"
   width="1300"
   height="1298"
   id="svg1"
   sodipodi:docname="head.svg"
   xmlns:inkscape="http://www.inkscape.org/namespaces/inkscape"
   xmlns:sodipodi="http://sodipodi.sourceforge.net/DTD/sodipodi-0.dtd"
   xmlns="http://www.w3.org/2000/svg"
   xmlns:svg="http://www.w3.org/2000/svg">
  <defs
     id="defs1" />
  <sodipodi:namedview
     id="namedview1"
     pagecolor="#ffffff"
     bordercolor="#000000"
     borderopacity="0.25"
     inkscape:showpageshadow="2"
     inkscape:pageopacity="0.0"
     inkscape:pagecheckerboard="0"
     inkscape:deskcolor="#d1d1d1">
    <inkscape:page
       x="0"
       y="0"
       width="1300"
       height="1298"
       id="page2"
       margin="0"
       bleed="0" />
  </sodipodi:namedview>
  <path
     d="m 602,0 c 31.68,0 63.36,0 96,0 0,0.66 0,1.32 0,2 7.92,0 15.84,0 24,0 0,0.66 0,1.32 0,2 5.28,0 10.56,0 16,0 0,0.66 0,1.32 0,2 4.62,0 9.24,0 14,0 0,0.66 0,1.32 0,2 3.96,0 7.92,0 12,0 0,0.66 0,1.32 0,2 3.96,0 7.92,0 12,0 0,0.66 0,1.32 0,2 3.3,0 6.6,0 10,0 0,0.66 0,1.32 0,2 2.64,0 5.28,0 8,0 0,0.66 0,1.32 0,2 3.3,0 6.6,0 10,0 0,0.66 0,1.32 0,2 2.64,0 5.28,0 8,0 0,0.66 0,1.32 0,2 2.64,0 5.28,0 8,0 0,0.66 0,1.32 0,2 1.98,0 3.96,0 6,0 0,0.66 0,1.32 0,2 2.64,0 5.28,0 8,0 0,0.66 0,1.32 0,2 1.98,0 3.96,0 6,0 0,0.66 0,1.32 0,2 1.98,0 3.96,0 6,0 0,0.66 0,1.32 0,2 2.64,0 5.28,0 8,0 0,0.66 0,1.32 0,2 1.98,0 3.96,0 6,0 0,0.66 0,1.32 0,2 1.32,0 2.64,0 4,0 0,0.66 0,1.32 0,2 1.98,0 3.96,0 6,0 0,0.66 0,1.32 0,2 1.98,0 3.96,0 6,0 0,0.66 0,1.32 0,2 1.98,0 3.96,0 6,0 0,0.66 0,1.32 0,2 1.32,0 2.64,0 4,0 0,0.66 0,1.32 0,2 1.98,0 3.96,0 6,0 0,0.66 0,1.32 0,2 1.32,0 2.64,0 4,0 0,0.66 0,1.32 0,2 1.98,0 3.96,0 6,0 0,0.66 0,1.32 0,2 1.32,0 2.64,0 4,0 0,0.66 0,1.32 0,2 1.98,0 3.96,0 6,0 0,0.66 0,1.32 0,2 1.32,0 2.64,0 4,0 0,0.66 0,1.32 0,2 1.32,0 2.64,0 4,0 0,0.66 0,1.32 0,2 1.32,0 2.64,0 4,0 0,0.66 0,1.32 0,2 1.32,0 2.64,0 4,0 0,0.66 0,1.32 0,2 1.32,0 2.64,0 4,0 0,0.66 0,1.32 0,2 1.32,0 2.64,0 4,0 0,0.66 0,1.32 0,2 1.98,0 3.96,0 6,0 0,0.66 0,1.32 0,2 1.32,0 2.64,0 4,0 0,0.66 0,1.32 0,2 0.66,0 1.32,0 2,0 0,0.66 0,1.32 0,2 1.32,0 2.64,0 4,0 0,0.66 0,1.32 0,2 1.32,0 2.64,0 4,0 0,0.66 0,1.32 0,2 1.32,0 2.64,0 4,0 0,0.66 0,1.32 0,2 1.32,0 2.64,0 4,0 0,0.66 0,1.32 0,2 1.32,0 2.64,0 4,0 0,0.66 0,1.32 0,2 1.32,0 2.64,0 4,0 0,0.66 0,1.32 0,2 0.66,0 1.32,0 2,0 0,0.66 0,1.32 0,2 1.32,0 2.64,0 4,0 0,0.66 0,1.32 0,2 1.32,0 2.64,0 4,0 0,0.66 0,1.32 0,2 0.66,0 1.32,0 2,0 0,0.66 0,1.32 0,2 1.32,0 2.64,0 4,0 0,0.66 0,1.32 0,2 1.32,0 2.64,0 4,0 0,0.66 0,1.32 0,2 0.66,0 1.32,0 2,0 0,0.66 0,1.32 0,2 1.32,0 2.64,0 4,0 0,0.66 0,1.32 0,2 1.32,0 2.64,0 4,0 0,0.66 0,1.32 0,2 0.66,0 1.32,0 2,0 0,0.66 0,1.32 0,2 1.32,0 2.64,0 4,0 0,0.66 0,1.32 0,2 0.66,0 1.32,0 2,0 0,0.66 0,1.32 0,2 1.32,0 2.64,0 4,0 0,0.66 0,1.32 0,2 0.66,0 1.32,0 2,0 0,0.66 0,1.32 0,2 1.32,0 2.64,0 4,0 0,0.66 0,1.32 0,2 0.66,0 1.32,0 2,0 0,0.66 0,1.32 0,2 0.66,0 1.32,0 2,0 0,0.66 0,1.32 0,2 1.32,0 2.64,0 4,0 0,0.66 0,1.32 0,2 0.66,0 1.32,0 2,0 0,0.66 0,1.32 0,2 1.32,0 2.64,0 4,0 0,0.66 0,1.32 0,2 0.66,0 1.32,0 2,0 0,0.66 0,1.32 0,2 0.66,0 1.32,0 2,0 0,0.66 0,1.32 0,2 1.32,0 2.64,0 4,0 0,0.66 0,1.32 0,2 0.66,0 1.32,0 2,0 0,0.66 0,1.32 0,2 0.66,0 1.32,0 2,0 0,0.66 0,1.32 0,2 1.32,0 2.64,0 4,0 0,0.66 0,1.32 0,2 0.66,0 1.32,0 2,0 0,0.66 0,1.32 0,2 0.66,0 1.32,0 2,0 0,0.66 0,1.32 0,2 0.66,0 1.32,0 2,0 0,0.66 0,1.32 0,2 1.32,0 2.64,0 4,0 0,0.66 0,1.32 0,2 0.66,0 1.32,0 2,0 0,0.66 0,1.32 0,2 0.66,0 1.32,0 2,0 0,0.66 0,1.32 0,2 0.66,0 1.32,0 2,0 0,0.66 0,1.32 0,2 0.66,0 1.32,0 2,0 0,0.66 0,1.32 0,2 1.32,0 2.64,0 4,0 0,0.66 0,1.32 0,2 0.66,0 1.32,0 2,0 0,0.66 0,1.32 0,2 0.66,0 1.32,0 2,0 0,0.66 0,1.32 0,2 0.66,0 1.32,0 2,0 0,0.66 0,1.32 0,2 0.66,0 1.32,0 2,0 0,0.66 0,1.32 0,2 0.66,0 1.32,0 2,0 0,0.66 0,1.32 0,2 1.32,0 2.64,0 4,0 0,0.66 0,1.32 0,2 0.66,0 1.32,0 2,0 0,0.66 0,1.32 0,2 0.66,0 1.32,0 2,0 0,0.66 0,1.32 0,2 0.66,0 1.32,0 2,0 0,0.66 0,1.32 0,2 0.66,0 1.32,0 2,0 0,0.66 0,1.32 0,2 0.66,0 1.32,0 2,0 0,0.66 0,1.32 0,2 0.66,0 1.32,0 2,0 0,0.66 0,1.32 0,2 0.66,0 1.32,0 2,0 0,0.66 0,1.32 0,2 0.66,0 1.32,0 2,0 0,0.66 0,1.32 0,2 0.66,0 1.32,0 2,0 0,0.66 0,1.32 0,2 0.66,0 1.32,0 2,0 0,0.66 0,1.32 0,2 0.66,0 1.32,0 2,0 0,0.66 0,1.32 0,2 0.66,0 1.32,0 2,0 0,0.66 0,1.32 0,2 0.66,0 1.32,0 2,0 0,0.66 0,1.32 0,2 0.66,0 1.32,0 2,0 0,0.66 0,1.32 0,2 0.66,0 1.32,0 2,0 0,0.66 0,1.32 0,2 0.66,0 1.32,0 2,0 0,0.66 0,1.32 0,2 0.66,0 1.32,0 2,0 0,0.66 0,1.32 0,2 0.66,0 1.32,0 2,0 0,0.66 0,1.32 0,2 0.66,0 1.32,0 2,0 0,0.66 0,1.32 0,2 0.66,0 1.32,0 2,0 0,0.66 0,1.32 0,2 0.66,0 1.32,0 2,0 0,0.66 0,1.32 0,2 0.66,0 1.32,0 2,0 0,0.66 0,1.32 0,2 0.66,0 1.32,0 2,0 0,0.66 0,1.32 0,2 0.66,0 1.32,0 2,0 0,1.32 0,2.64 0,4 0.66,0 1.32,0 2,0 0,0.66 0,1.32 0,2 0.66,0 1.32,0 2,0 0,0.66 0,1.32 0,2 0.66,0 1.32,0 2,0 0,0.66 0,1.32 0,2 0.66,0 1.32,0 2,0 0,0.66 0,1.32 0,2 0.66,0 1.32,0 2,0 0,0.66 0,1.32 0,2 0.66,0 1.32,0 2,0 0,0.66 0,1.32 0,2 0.66,0 1.32,0 2,0 0,1.32 0,2.64 0,4 0.66,0 1.32,0 2,0 0,0.66 0,1.32 0,2 0.66,0 1.32,0 2,0 0,0.66 0,1.32 0,2 0.66,0 1.32,0 2,0 0,0.66 0,1.32 0,2 0.66,0 1.32,0 2,0 0,0.66 0,1.32 0,2 0.66,0 1.32,0 2,0 0,1.32 0,2.64 0,4 0.66,0 1.32,0 2,0 0,0.66 0,1.32 0,2 0.66,0 1.32,0 2,0 0,0.66 0,1.32 0,2 0.66,0 1.32,0 2,0 0,0.66 0,1.32 0,2 0.66,0 1.32,0 2,0 0,1.32 0,2.64 0,4 0.66,0 1.32,0 2,0 0,0.66 0,1.32 0,2 0.66,0 1.32,0 2,0 0,0.66 0,1.32 0,2 0.66,0 1.32,0 2,0 0,1.32 0,2.64 0,4 0.66,0 1.32,0 2,0 0,0.66 0,1.32 0,2 0.66,0 1.32,0 2,0 0,0.66 0,1.32 0,2 0.66,0 1.32,0 2,0 0,1.32 0,2.64 0,4 0.66,0 1.32,0 2,0 0,0.66 0,1.32 0,2 0.66,0 1.32,0 2,0 0,1.32 0,2.64 0,4 0.66,0 1.32,0 2,0 0,0.66 0,1.32 0,2 0.66,0 1.32,0 2,0 0,1.32 0,2.64 0,4 0.66,0 1.32,0 2,0 0,0.66 0,1.32 0,2 0.66,0 1.32,0 2,0 0,0.66 0,1.32 0,2 0.66,0 1.32,0 2,0 0,1.32 0,2.64 0,4 0.66,0 1.32,0 2,0 0,1.32 0,2.64 0,4 0.66,0 1.32,0 2,0 0,0.66 0,1.32 0,2 0.66,0 1.32,0 2,0 0,1.32 0,2.64 0,4 0.66,0 1.32,0 2,0 0,0.66 0,1.32 0,2 0.66,0 1.32,0 2,0 0,1.32 0,2.64 0,4 0.66,0 1.32,0 2,0 0,0.66 0,1.32 0,2 0.66,0 1.32,0 2,0 0,1.32 0,2.64 0,4 0.66,0 1.32,0 2,0 0,1.32 0,2.64 0,4 0.66,0 1.32,0 2,0 0,0.66 0,1.32 0,2 0.66,0 1.32,0 2,0 0,1.32 0,2.64 0,4 0.66,0 1.32,0 2,0 0,1.32 0,2.64 0,4 0.66,0 1.32,0 2,0 0,1.32 0,2.64 0,4 0.66,0 1.32,0 2,0 0,0.66 0,1.32 0,2 0.66,0 1.32,0 2,0 0,1.32 0,2.64 0,4 0.66,0 1.32,0 2,0 0,1.32 0,2.64 0,4 0.66,0 1.32,0 2,0 0,1.32 0,2.64 0,4 0.66,0 1.32,0 2,0 0,1.32 0,2.64 0,4 0.66,0 1.32,0 2,0 0,1.32 0,2.64 0,4 0.66,0 1.32,0 2,0 0,1.32 0,2.64 0,4 0.66,0 1.32,0 2,0 0,1.32 0,2.64 0,4 0.66,0 1.32,0 2,0 0,1.32 0,2.64 0,4 0.66,0 1.32,0 2,0 0,1.32 0,2.64 0,4 0.66,0 1.32,0 2,0 0,1.32 0,2.64 0,4 0.66,0 1.32,0 2,0 0,1.32 0,2.64 0,4 0.66,0 1.32,0 2,0 0,1.32 0,2.64 0,4 0.66,0 1.32,0 2,0 0,1.32 0,2.64 0,4 0.66,0 1.32,0 2,0 0,1.98 0,3.96 0,6 0.66,0 1.32,0 2,0 0,1.32 0,2.64 0,4 0.66,0 1.32,0 2,0 0,1.32 0,2.64 0,4 0.66,0 1.32,0 2,0 0,1.98 0,3.96 0,6 0.66,0 1.32,0 2,0 0,1.32 0,2.64 0,4 0.66,0 1.32,0 2,0 0,1.98 0,3.96 0,6 0.66,0 1.32,0 2,0 0,1.98 0,3.96 0,6 0.66,0 1.32,0 2,0 0,1.32 0,2.64 0,4 0.66,0 1.32,0 2,0 0,1.98 0,3.96 0,6 0.66,0 1.32,0 2,0 0,1.98 0,3.96 0,6 0.66,0 1.32,0 2,0 0,1.98 0,3.96 0,6 0.66,0 1.32,0 2,0 0,1.98 0,3.96 0,6 0.66,0 1.32,0 2,0 0,1.98 0,3.96 0,6 0.66,0 1.32,0 2,0 0,1.98 0,3.96 0,6 0.66,0 1.32,0 2,0 0,2.64 0,5.28 0,8 0.66,0 1.32,0 2,0 0,1.98 0,3.96 0,6 0.66,0 1.32,0 2,0 0,2.64 0,5.28 0,8 0.66,0 1.32,0 2,0 0,2.64 0,5.28 0,8 0.66,0 1.32,0 2,0 0,2.64 0,5.28 0,8 0.66,0 1.32,0 2,0 0,2.64 0,5.28 0,8 0.66,0 1.32,0 2,0 0,3.3 0,6.6 0,10 0.66,0 1.32,0 2,0 0,3.3 0,6.6 0,10 0.66,0 1.32,0 2,0 0,3.96 0,7.92 0,12 0.66,0 1.32,0 2,0 0,3.96 0,7.92 0,12 0.66,0 1.32,0 2,0 0,4.62 0,9.24 0,14 0.66,0 1.32,0 2,0 0,5.94 0,11.88 0,18 0.66,0 1.32,0 2,0 0,7.92 0,15.84 0,24 0.66,0 1.32,0 2,0 0,28.38 0,56.76 0,86 -0.66,0 -1.32,0 -2,0 0,7.92 0,15.84 0,24 -0.66,0 -1.32,0 -2,0 0,5.28 0,10.56 0,16 -0.66,0 -1.32,0 -2,0 0,4.62 0,9.24 0,14 -0.66,0 -1.32,0 -2,0 0,3.96 0,7.92 0,12 -0.66,0 -1.32,0 -2,0 0,3.96 0,7.92 0,12 -0.66,0 -1.32,0 -2,0 0,3.3 0,6.6 0,10 -0.66,0 -1.32,0 -2,0 0,3.3 0,6.6 0,10 -0.66,0 -1.32,0 -2,0 0,2.64 0,5.28 0,8 -0.66,0 -1.32,0 -2,0 0,2.64 0,5.28 0,8 -0.66,0 -1.32,0 -2,0 0,2.64 0,5.28 0,8 -0.66,0 -1.32,0 -2,0 0,2.64 0,5.28 0,8 -0.66,0 -1.32,0 -2,0 0,2.64 0,5.28 0,8 -0.66,0 -1.32,0 -2,0 0,1.98 0,3.96 0,6 -0.66,0 -1.32,0 -2,0 0,1.98 0,3.96 0,6 -0.66,0 -1.32,0 -2,0 0,1.98 0,3.96 0,6 -0.66,0 -1.32,0 -2,0 0,2.64 0,5.28 0,8 -0.66,0 -1.32,0 -2,0 0,1.98 0,3.96 0,6 -0.66,0 -1.32,0 -2,0 0,1.32 0,2.64 0,4 -0.66,0 -1.32,0 -2,0 0,1.98 0,3.96 0,6 -0.66,0 -1.32,0 -2,0 0,1.98 0,3.96 0,6 -0.66,0 -1.32,0 -2,0 0,1.32 0,2.64 0,4 -0.66,0 -1.32,0 -2,0 0,1.98 0,3.96 0,6 -0.66,0 -1.32,0 -2,0 0,1.98 0,3.96 0,6 -0.66,0 -1.32,0 -2,0 0,1.32 0,2.64 0,4 -0.66,0 -1.32,0 -2,0 0,1.32 0,2.64 0,4 -0.66,0 -1.32,0 -2,0 0,1.98 0,3.96 0,6 -0.66,0 -1.32,0 -2,0 0,1.32 0,2.64 0,4 -0.66,0 -1.32,0 -2,0 0,1.32 0,2.64 0,4 -0.66,0 -1.32,0 -2,0 0,1.98 0,3.96 0,6 -0.66,0 -1.32,0 -2,0 0,1.32 0,2.64 0,4 -0.66,0 -1.32,0 -2,0 0,1.32 0,2.64 0,4 -0.66,0 -1.32,0 -2,0 0,1.32 0,2.64 0,4 -0.66,0 -1.32,0 -2,0 0,1.32 0,2.64 0,4 -0.66,0 -1.32,0 -2,0 0,1.32 0,2.64 0,4 -0.66,0 -1.32,0 -2,0 0,1.32 0,2.64 0,4 -0.66,0 -1.32,0 -2,0 0,1.32 0,2.64 0,4 -0.66,0 -1.32,0 -2,0 0,1.32 0,2.64 0,4 -0.66,0 -1.32,0 -2,0 0,1.32 0,2.64 0,4 -0.66,0 -1.32,0 -2,0 0,0.66 0,1.32 0,2 -0.66,0 -1.32,0 -2,0 0,1.32 0,2.64 0,4 -0.66,0 -1.32,0 -2,0 0,1.32 0,2.64 0,4 -0.66,0 -1.32,0 -2,0 0,1.32 0,2.64 0,4 -0.66,0 -1.32,0 -2,0 0,1.32 0,2.64 0,4 -0.66,0 -1.32,0 -2,0 0,0.66 0,1.32 0,2 -0.66,0 -1.32,0 -2,0 0,1.32 0,2.64 0,4 -0.66,0 -1.32,0 -2,0 0,1.32 0,2.64 0,4 -0.66,0 -1.32,0 -2,0 0,0.66 0,1.32 0,2 -0.66,0 -1.32,0 -2,0 0,1.32 0,2.64 0,4 -0.66,0 -1.32,0 -2,0 0,0.66 0,1.32 0,2 -0.66,0 -1.32,0 -2,0 0,1.32 0,2.64 0,4 -0.66,0 -1.32,0 -2,0 0,1.32 0,2.64 0,4 -0.66,0 -1.32,0 -2,0 0,0.66 0,1.32 0,2 -0.66,0 -1.32,0 -2,0 0,1.32 0,2.64 0,4 -0.66,0 -1.32,0 -2,0 0,0.66 0,1.32 0,2 -0.66,0 -1.32,0 -2,0 0,1.32 0,2.64 0,4 -0.66,0 -1.32,0 -2,0 0,0.66 0,1.32 0,2 -0.66,0 -1.32,0 -2,0 0,1.32 0,2.64 0,4 -0.66,0 -1.32,0 -2,0 0,0.66 0,1.32 0,2 -0.66,0 -1.32,0 -2,0 0,0.66 0,1.32 0,2 -0.66,0 -1.32,0 -2,0 0,1.32 0,2.64 0,4 -0.66,0 -1.32,0 -2,0 0,0.66 0,1.32 0,2 -0.66,0 -1.32,0 -2,0 0,1.32 0,2.64 0,4 -0.66,0 -1.32,0 -2,0 0,0.66 0,1.32 0,2 -0.66,0 -1.32,0 -2,0 0,0.66 0,1.32 0,2 -0.66,0 -1.32,0 -2,0 0,1.32 0,2.64 0,4 -0.66,0 -1.32,0 -2,0 0,0.66 0,1.32 0,2 -0.66,0 -1.32,0 -2,0 0,0.66 0,1.32 0,2 -0.66,0 -1.32,0 -2,0 0,0.66 0,1.32 0,2 -0.66,0 -1.32,0 -2,0 0,1.32 0,2.64 0,4 -0.66,0 -1.32,0 -2,0 0,0.66 0,1.32 0,2 -0.66,0 -1.32,0 -2,0 0,0.66 0,1.32 0,2 -0.66,0 -1.32,0 -2,0 0,0.66 0,1.32 0,2 -0.66,0 -1.32,0 -2,0 0,1.32 0,2.64 0,4 -0.66,0 -1.32,0 -2,0 0,0.66 0,1.32 0,2 -0.66,0 -1.32,0 -2,0 0,0.66 0,1.32 0,2 -0.66,0 -1.32,0 -2,0 0,0.66 0,1.32 0,2 -0.66,0 -1.32,0 -2,0 0,0.66 0,1.32 0,2 -0.66,0 -1.32,0 -2,0 0,1.32 0,2.64 0,4 -0.66,0 -1.32,0 -2,0 0,0.66 0,1.32 0,2 -0.66,0 -1.32,0 -2,0 0,0.66 0,1.32 0,2 -0.66,0 -1.32,0 -2,0 0,0.66 0,1.32 0,2 -0.66,0 -1.32,0 -2,0 0,0.66 0,1.32 0,2 -0.66,0 -1.32,0 -2,0 0,0.66 0,1.32 0,2 -0.66,0 -1.32,0 -2,0 0,0.66 0,1.32 0,2 -0.66,0 -1.32,0 -2,0 0,0.66 0,1.32 0,2 -0.66,0 -1.32,0 -2,0 0,1.32 0,2.64 0,4 -0.66,0 -1.32,0 -2,0 0,0.66 0,1.32 0,2 -0.66,0 -1.32,0 -2,0 0,0.66 0,1.32 0,2 -0.66,0 -1.32,0 -2,0 0,0.66 0,1.32 0,2 -0.66,0 -1.32,0 -2,0 0,0.66 0,1.32 0,2 -0.66,0 -1.32,0 -2,0 0,0.66 0,1.32 0,2 -0.66,0 -1.32,0 -2,0 0,0.66 0,1.32 0,2 -0.66,0 -1.32,0 -2,0 0,0.66 0,1.32 0,2 -0.66,0 -1.32,0 -2,0 0,0.66 0,1.32 0,2 -0.66,0 -1.32,0 -2,0 0,0.66 0,1.32 0,2 -0.66,0 -1.32,0 -2,0 0,0.66 0,1.32 0,2 -0.66,0 -1.32,0 -2,0 0,0.66 0,1.32 0,2 -0.66,0 -1.32,0 -2,0 0,0.66 0,1.32 0,2 -0.66,0 -1.32,0 -2,0 0,0.66 0,1.32 0,2 -0.66,0 -1.32,0 -2,0 0,0.66 0,1.32 0,2 -0.66,0 -1.32,0 -2,0 0,0.66 0,1.32 0,2 -0.66,0 -1.32,0 -2,0 0,0.66 0,1.32 0,2 -0.66,0 -1.32,0 -2,0 0,0.66 0,1.32 0,2 -0.66,0 -1.32,0 -2,0 0,0.66 0,1.32 0,2 -1.32,0 -2.64,0 -4,0 0,0.66 0,1.32 0,2 -0.66,0 -1.32,0 -2,0 0,0.66 0,1.32 0,2 -0.66,0 -1.32,0 -2,0 0,0.66 0,1.32 0,2 -0.66,0 -1.32,0 -2,0 0,0.66 0,1.32 0,2 -0.66,0 -1.32,0 -2,0 0,0.66 0,1.32 0,2 -0.66,0 -1.32,0 -2,0 0,0.66 0,1.32 0,2 -0.66,0 -1.32,0 -2,0 0,0.66 0,1.32 0,2 -0.66,0 -1.32,0 -2,0 0,0.66 0,1.32 0,2 -1.32,0 -2.64,0 -4,0 0,0.66 0,1.32 0,2 -0.66,0 -1.32,0 -2,0 0,0.66 0,1.32 0,2 -0.66,0 -1.32,0 -2,0 0,0.66 0,1.32 0,2 -0.66,0 -1.32,0 -2,0 0,0.66 0,1.32 0,2 -0.66,0 -1.32,0 -2,0 0,0.66 0,1.32 0,2 -1.32,0 -2.64,0 -4,0 0,0.66 0,1.32 0,2 -0.66,0 -1.32,0 -2,0 0,0.66 0,1.32 0,2 -0.66,0 -1.32,0 -2,0 0,0.66 0,1.32 0,2 -0.66,0 -1.32,0 -2,0 0,0.66 0,1.32 0,2 -1.32,0 -2.64,0 -4,0 0,0.66 0,1.32 0,2 -0.66,0 -1.32,0 -2,0 0,0.66 0,1.32 0,2 -0.66,0 -1.32,0 -2,0 0,0.66 0,1.32 0,2 -1.32,0 -2.64,0 -4,0 0,0.66 0,1.32 0,2 -0.66,0 -1.32,0 -2,0 0,0.66 0,1.32 0,2 -0.66,0 -1.32,0 -2,0 0,0.66 0,1.32 0,2 -1.32,0 -2.64,0 -4,0 0,0.66 0,1.32 0,2 -0.66,0 -1.32,0 -2,0 0,0.66 0,1.32 0,2 -0.66,0 -1.32,0 -2,0 0,0.66 0,1.32 0,2 -1.32,0 -2.64,0 -4,0 0,0.66 0,1.32 0,2 -0.66,0 -1.32,0 -2,0 0,0.66 0,1.32 0,2 -1.32,0 -2.64,0 -4,0 0,0.66 0,1.32 0,2 -0.66,0 -1.32,0 -2,0 0,0.66 0,1.32 0,2 -1.32,0 -2.64,0 -4,0 0,0.66 0,1.32 0,2 -0.66,0 -1.32,0 -2,0 0,0.66 0,1.32 0,2 -1.32,0 -2.64,0 -4,0 0,0.66 0,1.32 0,2 -0.66,0 -1.32,0 -2,0 0,0.66 0,1.32 0,2 -1.32,0 -2.64,0 -4,0 0,0.66 0,1.32 0,2 -0.66,0 -1.32,0 -2,0 0,0.66 0,1.32 0,2 -1.32,0 -2.64,0 -4,0 0,0.66 0,1.32 0,2 -1.32,0 -2.64,0 -4,0 0,0.66 0,1.32 0,2 -0.66,0 -1.32,0 -2,0 0,0.66 0,1.32 0,2 -1.32,0 -2.64,0 -4,0 0,0.66 0,1.32 0,2 -1.32,0 -2.64,0 -4,0 0,0.66 0,1.32 0,2 -0.66,0 -1.32,0 -2,0 0,0.66 0,1.32 0,2 -1.32,0 -2.64,0 -4,0 0,0.66 0,1.32 0,2 -1.32,0 -2.64,0 -4,0 0,0.66 0,1.32 0,2 -1.32,0 -2.64,0 -4,0 0,0.66 0,1.32 0,2 -0.66,0 -1.32,0 -2,0 0,0.66 0,1.32 0,2 -1.32,0 -2.64,0 -4,0 0,0.66 0,1.32 0,2 -1.32,0 -2.64,0 -4,0 0,0.66 0,1.32 0,2 -1.32,0 -2.64,0 -4,0 0,0.66 0,1.32 0,2 -1.32,0 -2.64,0 -4,0 0,0.66 0,1.32 0,2 -1.32,0 -2.64,0 -4,0 0,0.66 0,1.32 0,2 -1.32,0 -2.64,0 -4,0 0,0.66 0,1.32 0,2 -1.32,0 -2.64,0 -4,0 0,0.66 0,1.32 0,2 -1.32,0 -2.64,0 -4,0 0,0.66 0,1.32 0,2 -1.32,0 -2.64,0 -4,0 0,0.66 0,1.32 0,2 -1.32,0 -2.64,0 -4,0 0,0.66 0,1.32 0,2 -1.32,0 -2.64,0 -4,0 0,0.66 0,1.32 0,2 -1.98,0 -3.96,0 -6,0 0,0.66 0,1.32 0,2 -1.32,0 -2.64,0 -4,0 0,0.66 0,1.32 0,2 -1.32,0 -2.64,0 -4,0 0,0.66 0,1.32 0,2 -1.98,0 -3.96,0 -6,0 0,0.66 0,1.32 0,2 -1.32,0 -2.64,0 -4,0 0,0.66 0,1.32 0,2 -1.98,0 -3.96,0 -6,0 0,0.66 0,1.32 0,2 -1.32,0 -2.64,0 -4,0 0,0.66 0,1.32 0,2 -1.98,0 -3.96,0 -6,0 0,0.66 0,1.32 0,2 -1.32,0 -2.64,0 -4,0 0,0.66 0,1.32 0,2 -1.98,0 -3.96,0 -6,0 0,0.66 0,1.32 0,2 -1.98,0 -3.96,0 -6,0 0,0.66 0,1.32 0,2 -1.98,0 -3.96,0 -6,0 0,0.66 0,1.32 0,2 -1.98,0 -3.96,0 -6,0 0,0.66 0,1.32 0,2 -1.98,0 -3.96,0 -6,0 0,0.66 0,1.32 0,2 -1.98,0 -3.96,0 -6,0 0,0.66 0,1.32 0,2 -2.64,0 -5.28,0 -8,0 0,0.66 0,1.32 0,2 -1.98,0 -3.96,0 -6,0 0,0.66 0,1.32 0,2 -2.64,0 -5.28,0 -8,0 0,0.66 0,1.32 0,2 -2.64,0 -5.28,0 -8,0 0,0.66 0,1.32 0,2 -2.64,0 -5.28,0 -8,0 0,0.66 0,1.32 0,2 -2.64,0 -5.28,0 -8,0 0,0.66 0,1.32 0,2 -3.3,0 -6.6,0 -10,0 0,0.66 0,1.32 0,2 -3.3,0 -6.6,0 -10,0 0,0.66 0,1.32 0,2 -3.96,0 -7.92,0 -12,0 0,0.66 0,1.32 0,2 -3.96,0 -7.92,0 -12,0 0,0.66 0,1.32 0,2 -4.62,0 -9.24,0 -14,0 0,0.66 0,1.32 0,2 -5.94,0 -11.88,0 -18,0 0,0.66 0,1.32 0,2 -8.58,0 -17.16,0 -26,0 0,0.66 0,1.32 0,2 -27.72,0 -55.44,0 -84,0 0,-0.66 0,-1.32 0,-2 -8.58,0 -17.16,0 -26,0 0,-0.66 0,-1.32 0,-2 -5.28,0 -10.56,0 -16,0 0,-0.66 0,-1.32 0,-2 -5.28,0 -10.56,0 -16,0 0,-0.66 0,-1.32 0,-2 -3.96,0 -7.92,0 -12,0 0,-0.66 0,-1.32 0,-2 -3.3,0 -6.6,0 -10,0 0,-0.66 0,-1.32 0,-2 -3.3,0 -6.6,0 -10,0 0,-0.66 0,-1.32 0,-2 -3.3,0 -6.6,0 -10,0 0,-0.66 0,-1.32 0,-2 -2.64,0 -5.28,0 -8,0 0,-0.66 0,-1.32 0,-2 -2.64,0 -5.28,0 -8,0 0,-0.66 0,-1.32 0,-2 -2.64,0 -5.28,0 -8,0 0,-0.66 0,-1.32 0,-2 -2.64,0 -5.28,0 -8,0 0,-0.66 0,-1.32 0,-2 -2.64,0 -5.28,0 -8,0 0,-0.66 0,-1.32 0,-2 -1.98,0 -3.96,0 -6,0 0,-0.66 0,-1.32 0,-2 -1.98,0 -3.96,0 -6,0 0,-0.66 0,-1.32 0,-2 -1.98,0 -3.96,0 -6,0 0,-0.66 0,-1.32 0,-2 -1.98,0 -3.96,0 -6,0 0,-0.66 0,-1.32 0,-2 -1.98,0 -3.96,0 -6,0 0,-0.66 0,-1.32 0,-2 -1.98,0 -3.96,0 -6,0 0,-0.66 0,-1.32 0,-2 -1.98,0 -3.96,0 -6,0 0,-0.66 0,-1.32 0,-2 -1.98,0 -3.96,0 -6,0 0,-0.66 0,-1.32 0,-2 -1.32,0 -2.64,0 -4,0 0,-0.66 0,-1.32 0,-2 -1.98,0 -3.96,0 -6,0 0,-0.66 0,-1.32 0,-2 -1.32,0 -2.64,0 -4,0 0,-0.66 0,-1.32 0,-2 -1.98,0 -3.96,0 -6,0 0,-0.66 0,-1.32 0,-2 -1.32,0 -2.64,0 -4,0 0,-0.66 0,-1.32 0,-2 -1.98,0 -3.96,0 -6,0 0,-0.66 0,-1.32 0,-2 -1.32,0 -2.64,0 -4,0 0,-0.66 0,-1.32 0,-2 -1.32,0 -2.64,0 -4,0 0,-0.66 0,-1.32 0,-2 -1.32,0 -2.64,0 -4,0 0,-0.66 0,-1.32 0,-2 -1.98,0 -3.96,0 -6,0 0,-0.66 0,-1.32 0,-2 -1.32,0 -2.64,0 -4,0 0,-0.66 0,-1.32 0,-2 -1.32,0 -2.64,0 -4,0 0,-0.66 0,-1.32 0,-2 -1.32,0 -2.64,0 -4,0 0,-0.66 0,-1.32 0,-2 -1.32,0 -2.64,0 -4,0 0,-0.66 0,-1.32 0,-2 -1.32,0 -2.64,0 -4,0 0,-0.66 0,-1.32 0,-2 -1.32,0 -2.64,0 -4,0 0,-0.66 0,-1.32 0,-2 -1.32,0 -2.64,0 -4,0 0,-0.66 0,-1.32 0,-2 -0.66,0 -1.32,0 -2,0 0,-0.66 0,-1.32 0,-2 -1.32,0 -2.64,0 -4,0 0,-0.66 0,-1.32 0,-2 -1.32,0 -2.64,0 -4,0 0,-0.66 0,-1.32 0,-2 -1.32,0 -2.64,0 -4,0 0,-0.66 0,-1.32 0,-2 -1.32,0 -2.64,0 -4,0 0,-0.66 0,-1.32 0,-2 -0.66,0 -1.32,0 -2,0 0,-0.66 0,-1.32 0,-2 -1.32,0 -2.64,0 -4,0 0,-0.66 0,-1.32 0,-2 -1.32,0 -2.64,0 -4,0 0,-0.66 0,-1.32 0,-2 -0.66,0 -1.32,0 -2,0 0,-0.66 0,-1.32 0,-2 -1.32,0 -2.64,0 -4,0 0,-0.66 0,-1.32 0,-2 -1.32,0 -2.64,0 -4,0 0,-0.66 0,-1.32 0,-2 -0.66,0 -1.32,0 -2,0 0,-0.66 0,-1.32 0,-2 -1.32,0 -2.64,0 -4,0 0,-0.66 0,-1.32 0,-2 -0.66,0 -1.32,0 -2,0 0,-0.66 0,-1.32 0,-2 -1.32,0 -2.64,0 -4,0 0,-0.66 0,-1.32 0,-2 -0.66,0 -1.32,0 -2,0 0,-0.66 0,-1.32 0,-2 -1.32,0 -2.64,0 -4,0 0,-0.66 0,-1.32 0,-2 -0.66,0 -1.32,0 -2,0 0,-0.66 0,-1.32 0,-2 -1.32,0 -2.64,0 -4,0 0,-0.66 0,-1.32 0,-2 -0.66,0 -1.32,0 -2,0 0,-0.66 0,-1.32 0,-2 -1.32,0 -2.64,0 -4,0 0,-0.66 0,-1.32 0,-2 -0.66,0 -1.32,0 -2,0 0,-0.66 0,-1.32 0,-2 -1.32,0 -2.64,0 -4,0 0,-0.66 0,-1.32 0,-2 -0.66,0 -1.32,0 -2,0 0,-0.66 0,-1.32 0,-2 -0.66,0 -1.32,0 -2,0 0,-0.66 0,-1.32 0,-2 -0.66,0 -1.32,0 -2,0 0,-0.66 0,-1.32 0,-2 -1.32,0 -2.64,0 -4,0 0,-0.66 0,-1.32 0,-2 -0.66,0 -1.32,0 -2,0 0,-0.66 0,-1.32 0,-2 -0.66,0 -1.32,0 -2,0 0,-0.66 0,-1.32 0,-2 -1.32,0 -2.64,0 -4,0 0,-0.66 0,-1.32 0,-2 -0.66,0 -1.32,0 -2,0 0,-0.66 0,-1.32 0,-2 -0.66,0 -1.32,0 -2,0 0,-0.66 0,-1.32 0,-2 -0.66,0 -1.32,0 -2,0 0,-0.66 0,-1.32 0,-2 -1.32,0 -2.64,0 -4,0 0,-0.66 0,-1.32 0,-2 -0.66,0 -1.32,0 -2,0 0,-0.66 0,-1.32 0,-2 -0.66,0 -1.32,0 -2,0 0,-0.66 0,-1.32 0,-2 -0.66,0 -1.32,0 -2,0 0,-0.66 0,-1.32 0,-2 -0.66,0 -1.32,0 -2,0 0,-0.66 0,-1.32 0,-2 -1.32,0 -2.64,0 -4,0 0,-0.66 0,-1.32 0,-2 -0.66,0 -1.32,0 -2,0 0,-0.66 0,-1.32 0,-2 -0.66,0 -1.32,0 -2,0 0,-0.66 0,-1.32 0,-2 -0.66,0 -1.32,0 -2,0 0,-0.66 0,-1.32 0,-2 -0.66,0 -1.32,0 -2,0 0,-0.66 0,-1.32 0,-2 -0.66,0 -1.32,0 -2,0 0,-0.66 0,-1.32 0,-2 -1.32,0 -2.64,0 -4,0 0,-0.66 0,-1.32 0,-2 -0.66,0 -1.32,0 -2,0 0,-0.66 0,-1.32 0,-2 -0.66,0 -1.32,0 -2,0 0,-0.66 0,-1.32 0,-2 -0.66,0 -1.32,0 -2,0 0,-0.66 0,-1.32 0,-2 -0.66,0 -1.32,0 -2,0 0,-0.66 0,-1.32 0,-2 -0.66,0 -1.32,0 -2,0 0,-0.66 0,-1.32 0,-2 -0.66,0 -1.32,0 -2,0 0,-0.66 0,-1.32 0,-2 -0.66,0 -1.32,0 -2,0 0,-0.66 0,-1.32 0,-2 -0.66,0 -1.32,0 -2,0 0,-0.66 0,-1.32 0,-2 -0.66,0 -1.32,0 -2,0 0,-0.66 0,-1.32 0,-2 -0.66,0 -1.32,0 -2,0 0,-0.66 0,-1.32 0,-2 -0.66,0 -1.32,0 -2,0 0,-0.66 0,-1.32 0,-2 -0.66,0 -1.32,0 -2,0 0,-0.66 0,-1.32 0,-2 -0.66,0 -1.32,0 -2,0 0,-0.66 0,-1.32 0,-2 -0.66,0 -1.32,0 -2,0 0,-0.66 0,-1.32 0,-2 -0.66,0 -1.32,0 -2,0 0,-0.66 0,-1.32 0,-2 -0.66,0 -1.32,0 -2,0 0,-0.66 0,-1.32 0,-2 -0.66,0 -1.32,0 -2,0 0,-0.66 0,-1.32 0,-2 -0.66,0 -1.32,0 -2,0 0,-0.66 0,-1.32 0,-2 -0.66,0 -1.32,0 -2,0 0,-0.66 0,-1.32 0,-2 -0.66,0 -1.32,0 -2,0 0,-0.66 0,-1.32 0,-2 -0.66,0 -1.32,0 -2,0 0,-0.66 0,-1.32 0,-2 -0.66,0 -1.32,0 -2,0 0,-0.66 0,-1.32 0,-2 -0.66,0 -1.32,0 -2,0 0,-0.66 0,-1.32 0,-2 -0.66,0 -1.32,0 -2,0 0,-0.66 0,-1.32 0,-2 -0.66,0 -1.32,0 -2,0 0,-1.32 0,-2.64 0,-4 -0.66,0 -1.32,0 -2,0 0,-0.66 0,-1.32 0,-2 -0.66,0 -1.32,0 -2,0 0,-0.66 0,-1.32 0,-2 -0.66,0 -1.32,0 -2,0 0,-0.66 0,-1.32 0,-2 -0.66,0 -1.32,0 -2,0 0,-0.66 0,-1.32 0,-2 -0.66,0 -1.32,0 -2,0 0,-0.66 0,-1.32 0,-2 -0.66,0 -1.32,0 -2,0 0,-0.66 0,-1.32 0,-2 -0.66,0 -1.32,0 -2,0 0,-1.32 0,-2.64 0,-4 -0.66,0 -1.32,0 -2,0 0,-0.66 0,-1.32 0,-2 -0.66,0 -1.32,0 -2,0 0,-0.66 0,-1.32 0,-2 -0.66,0 -1.32,0 -2,0 0,-0.66 0,-1.32 0,-2 -0.66,0 -1.32,0 -2,0 0,-1.32 0,-2.64 0,-4 -0.66,0 -1.32,0 -2,0 0,-0.66 0,-1.32 0,-2 -0.66,0 -1.32,0 -2,0 0,-0.66 0,-1.32 0,-2 -0.66,0 -1.32,0 -2,0 0,-0.66 0,-1.32 0,-2 -0.66,0 -1.32,0 -2,0 0,-0.66 0,-1.32 0,-2 -0.66,0 -1.32,0 -2,0 0,-1.32 0,-2.64 0,-4 -0.66,0 -1.32,0 -2,0 0,-0.66 0,-1.32 0,-2 -0.66,0 -1.32,0 -2,0 0,-0.66 0,-1.32 0,-2 -0.66,0 -1.32,0 -2,0 0,-1.32 0,-2.64 0,-4 -0.66,0 -1.32,0 -2,0 0,-0.66 0,-1.32 0,-2 -0.66,0 -1.32,0 -2,0 0,-0.66 0,-1.32 0,-2 -0.66,0 -1.32,0 -2,0 0,-1.32 0,-2.64 0,-4 -0.66,0 -1.32,0 -2,0 0,-0.66 0,-1.32 0,-2 -0.66,0 -1.32,0 -2,0 0,-1.32 0,-2.64 0,-4 -0.66,0 -1.32,0 -2,0 0,-0.66 0,-1.32 0,-2 -0.66,0 -1.32,0 -2,0 0,-1.32 0,-2.64 0,-4 -0.66,0 -1.32,0 -2,0 0,-0.66 0,-1.32 0,-2 -0.66,0 -1.32,0 -2,0 0,-0.66 0,-1.32 0,-2 -0.66,0 -1.32,0 -2,0 0,-1.32 0,-2.64 0,-4 -0.66,0 -1.32,0 -2,0 0,-1.32 0,-2.64 0,-4 -0.66,0 -1.32,0 -2,0 0,-0.66 0,-1.32 0,-2 -0.66,0 -1.32,0 -2,0 0,-1.32 0,-2.64 0,-4 -0.66,0 -1.32,0 -2,0 0,-0.66 0,-1.32 0,-2 -0.66,0 -1.32,0 -2,0 0,-1.32 0,-2.64 0,-4 -0.66,0 -1.32,0 -2,0 0,-0.66 0,-1.32 0,-2 -0.66,0 -1.32,0 -2,0 0,-1.32 0,-2.64 0,-4 -0.66,0 -1.32,0 -2,0 0,-1.32 0,-2.64 0,-4 -0.66,0 -1.32,0 -2,0 0,-1.32 0,-2.64 0,-4 -0.66,0 -1.32,0 -2,0 0,-0.66 0,-1.32 0,-2 -0.66,0 -1.32,0 -2,0 0,-1.32 0,-2.64 0,-4 -0.66,0 -1.32,0 -2,0 0,-1.32 0,-2.64 0,-4 -0.66,0 -1.32,0 -2,0 0,-1.32 0,-2.64 0,-4 -0.66,0 -1.32,0 -2,0 0,-0.66 0,-1.32 0,-2 -0.66,0 -1.32,0 -2,0 0,-1.32 0,-2.64 0,-4 -0.66,0 -1.32,0 -2,0 0,-1.32 0,-2.64 0,-4 -0.66,0 -1.32,0 -2,0 0,-1.32 0,-2.64 0,-4 -0.66,0 -1.32,0 -2,0 0,-1.32 0,-2.64 0,-4 -0.66,0 -1.32,0 -2,0 0,-1.32 0,-2.64 0,-4 -0.66,0 -1.32,0 -2,0 0,-1.32 0,-2.64 0,-4 -0.66,0 -1.32,0 -2,0 0,-1.32 0,-2.64 0,-4 -0.66,0 -1.32,0 -2,0 0,-1.32 0,-2.64 0,-4 -0.66,0 -1.32,0 -2,0 0,-1.32 0,-2.64 0,-4 -0.66,0 -1.32,0 -2,0 0,-1.32 0,-2.64 0,-4 -0.66,0 -1.32,0 -2,0 0,-1.98 0,-3.96 0,-6 -0.66,0 -1.32,0 -2,0 0,-1.32 0,-2.64 0,-4 -0.66,0 -1.32,0 -2,0 0,-1.32 0,-2.64 0,-4 -0.66,0 -1.32,0 -2,0 0,-1.98 0,-3.96 0,-6 -0.66,0 -1.32,0 -2,0 0,-1.32 0,-2.64 0,-4 -0.66,0 -1.32,0 -2,0 0,-1.98 0,-3.96 0,-6 -0.66,0 -1.32,0 -2,0 0,-1.32 0,-2.64 0,-4 -0.66,0 -1.32,0 -2,0 0,-1.98 0,-3.96 0,-6 -0.66,0 -1.32,0 -2,0 0,-1.32 0,-2.64 0,-4 -0.66,0 -1.32,0 -2,0 0,-1.98 0,-3.96 0,-6 -0.66,0 -1.32,0 -2,0 0,-1.98 0,-3.96 0,-6 -0.66,0 -1.32,0 -2,0 0,-1.98 0,-3.96 0,-6 -0.66,0 -1.32,0 -2,0 0,-1.98 0,-3.96 0,-6 -0.66,0 -1.32,0 -2,0 0,-1.98 0,-3.96 0,-6 -0.66,0 -1.32,0 -2,0 0,-1.98 0,-3.96 0,-6 -0.66,0 -1.32,0 -2,0 0,-1.98 0,-3.96 0,-6 -0.66,0 -1.32,0 -2,0 0,-2.64 0,-5.28 0,-8 -0.66,0 -1.32,0 -2,0 0,-2.64 0,-5.28 0,-8 -0.66,0 -1.32,0 -2,0 0,-1.98 0,-3.96 0,-6 -0.66,0 -1.32,0 -2,0 0,-2.64 0,-5.28 0,-8 -0.66,0 -1.32,0 -2,0 0,-3.3 0,-6.6 0,-10 -0.66,0 -1.32,0 -2,0 0,-2.64 0,-5.28 0,-8 -0.66,0 -1.32,0 -2,0 0,-3.3 0,-6.6 0,-10 -0.66,0 -1.32,0 -2,0 0,-3.96 0,-7.92 0,-12 -0.66,0 -1.32,0 -2,0 0,-3.96 0,-7.92 0,-12 -0.66,0 -1.32,0 -2,0 0,-3.96 0,-7.92 0,-12 -0.66,0 -1.32,0 -2,0 0,-5.94 0,-11.88 0,-18 -0.66,0 -1.32,0 -2,0 0,-6.6 0,-13.2 0,-20 -0.66,0 -1.32,0 -2,0 0,-13.86 0,-27.72 0,-42 -0.66,0 -1.32,0 -2,0 0,-7.26 0,-14.52 0,-22 0.66,0 1.32,0 2,0 0,-13.86 0,-27.72 0,-42 0.66,0 1.32,0 2,0 0,-7.26 0,-14.52 0,-22 0.66,0 1.32,0 2,0 0,-5.28 0,-10.56 0,-16 0.66,0 1.32,0 2,0 0,-3.96 0,-7.92 0,-12 0.66,0 1.32,0 2,0 0,-3.96 0,-7.92 0,-12 0.66,0 1.32,0 2,0 0,-3.96 0,-7.92 0,-12 0.66,0 1.32,0 2,0 0,-3.3 0,-6.6 0,-10 0.66,0 1.32,0 2,0 0,-2.64 0,-5.28 0,-8 0.66,0 1.32,0 2,0 0,-3.3 0,-6.6 0,-10 0.66,0 1.32,0 2,0 0,-2.64 0,-5.28 0,-8 0.66,0 1.32,0 2,0 0,-1.98 0,-3.96 0,-6 0.66,0 1.32,0 2,0 0,-2.64 0,-5.28 0,-8 0.66,0 1.32,0 2,0 0,-2.64 0,-5.28 0,-8 0.66,0 1.32,0 2,0 0,-1.98 0,-3.96 0,-6 0.66,0 1.32,0 2,0 0,-1.98 0,-3.96 0,-6 0.66,0 1.32,0 2,0 0,-1.98 0,-3.96 0,-6 0.66,0 1.32,0 2,0 0,-1.98 0,-3.96 0,-6 0.66,0 1.32,0 2,0 0,-1.98 0,-3.96 0,-6 0.66,0 1.32,0 2,0 0,-1.98 0,-3.96 0,-6 0.66,0 1.32,0 2,0 0,-1.98 0,-3.96 0,-6 0.66,0 1.32,0 2,0 0,-1.32 0,-2.64 0,-4 0.66,0 1.32,0 2,0 0,-1.98 0,-3.96 0,-6 0.66,0 1.32,0 2,0 0,-1.98 0,-3.96 0,-6 0.66,0 1.32,0 2,0 0,-1.32 0,-2.64 0,-4 0.66,0 1.32,0 2,0 0,-1.32 0,-2.64 0,-4 0.66,0 1.32,0 2,0 0,-1.98 0,-3.96 0,-6 0.66,0 1.32,0 2,0 0,-1.32 0,-2.64 0,-4 0.66,0 1.32,0 2,0 0,-1.32 0,-2.64 0,-4 0.66,0 1.32,0 2,0 0,-1.98 0,-3.96 0,-6 0.66,0 1.32,0 2,0 0,-1.32 0,-2.64 0,-4 0.66,0 1.32,0 2,0 0,-1.32 0,-2.64 0,-4 0.66,0 1.32,0 2,0 0,-1.32 0,-2.64 0,-4 0.66,0 1.32,0 2,0 0,-1.32 0,-2.64 0,-4 0.66,0 1.32,0 2,0 0,-1.32 0,-2.64 0,-4 0.66,0 1.32,0 2,0 0,-1.32 0,-2.64 0,-4 0.66,0 1.32,0 2,0 0,-1.32 0,-2.64 0,-4 0.66,0 1.32,0 2,0 0,-1.32 0,-2.64 0,-4 0.66,0 1.32,0 2,0 0,-1.32 0,-2.64 0,-4 0.66,0 1.32,0 2,0 0,-1.32 0,-2.64 0,-4 0.66,0 1.32,0 2,0 0,-0.66 0,-1.32 0,-2 0.66,0 1.32,0 2,0 0,-1.32 0,-2.64 0,-4 0.66,0 1.32,0 2,0 0,-1.32 0,-2.64 0,-4 0.66,0 1.32,0 2,0 0,-1.32 0,-2.64 0,-4 0.66,0 1.32,0 2,0 0,-1.32 0,-2.64 0,-4 0.66,0 1.32,0 2,0 0,-0.66 0,-1.32 0,-2 0.66,0 1.32,0 2,0 0,-1.32 0,-2.64 0,-4 0.66,0 1.32,0 2,0 0,-1.32 0,-2.64 0,-4 0.66,0 1.32,0 2,0 0,-0.66 0,-1.32 0,-2 0.66,0 1.32,0 2,0 0,-1.32 0,-2.64 0,-4 0.66,0 1.32,0 2,0 0,-0.66 0,-1.32 0,-2 0.66,0 1.32,0 2,0 0,-1.32 0,-2.64 0,-4 0.66,0 1.32,0 2,0 0,-1.32 0,-2.64 0,-4 0.66,0 1.32,0 2,0 0,-0.66 0,-1.32 0,-2 0.66,0 1.32,0 2,0 0,-1.32 0,-2.64 0,-4 0.66,0 1.32,0 2,0 0,-0.66 0,-1.32 0,-2 0.66,0 1.32,0 2,0 0,-1.32 0,-2.64 0,-4 0.66,0 1.32,0 2,0 0,-0.66 0,-1.32 0,-2 0.66,0 1.32,0 2,0 0,-0.66 0,-1.32 0,-2 0.66,0 1.32,0 2,0 0,-1.32 0,-2.64 0,-4 0.66,0 1.32,0 2,0 0,-0.66 0,-1.32 0,-2 0.66,0 1.32,0 2,0 0,-1.32 0,-2.64 0,-4 0.66,0 1.32,0 2,0 0,-0.66 0,-1.32 0,-2 0.66,0 1.32,0 2,0 0,-0.66 0,-1.32 0,-2 0.66,0 1.32,0 2,0 0,-1.32 0,-2.64 0,-4 0.66,0 1.32,0 2,0 0,-0.66 0,-1.32 0,-2 0.66,0 1.32,0 2,0 0,-0.66 0,-1.32 0,-2 0.66,0 1.32,0 2,0 0,-1.32 0,-2.64 0,-4 0.66,0 1.32,0 2,0 0,-0.66 0,-1.32 0,-2 0.66,0 1.32,0 2,0 0,-0.66 0,-1.32 0,-2 0.66,0 1.32,0 2,0 0,-1.32 0,-2.64 0,-4 0.66,0 1.32,0 2,0 0,-0.66 0,-1.32 0,-2 0.66,0 1.32,0 2,0 0,-0.66 0,-1.32 0,-2 0.66,0 1.32,0 2,0 0,-0.66 0,-1.32 0,-2 0.66,0 1.32,0 2,0 0,-0.66 0,-1.32 0,-2 0.66,0 1.32,0 2,0 0,-1.32 0,-2.64 0,-4 0.66,0 1.32,0 2,0 0,-0.66 0,-1.32 0,-2 0.66,0 1.32,0 2,0 0,-0.66 0,-1.32 0,-2 0.66,0 1.32,0 2,0 0,-0.66 0,-1.32 0,-2 0.66,0 1.32,0 2,0 0,-0.66 0,-1.32 0,-2 0.66,0 1.32,0 2,0 0,-1.32 0,-2.64 0,-4 0.66,0 1.32,0 2,0 0,-0.66 0,-1.32 0,-2 0.66,0 1.32,0 2,0 0,-0.66 0,-1.32 0,-2 0.66,0 1.32,0 2,0 0,-0.66 0,-1.32 0,-2 0.66,0 1.32,0 2,0 0,-0.66 0,-1.32 0,-2 0.66,0 1.32,0 2,0 0,-0.66 0,-1.32 0,-2 0.66,0 1.32,0 2,0 0,-0.66 0,-1.32 0,-2 0.66,0 1.32,0 2,0 0,-0.66 0,-1.32 0,-2 0.66,0 1.32,0 2,0 0,-0.66 0,-1.32 0,-2 0.66,0 1.32,0 2,0 0,-0.66 0,-1.32 0,-2 0.66,0 1.32,0 2,0 0,-0.66 0,-1.32 0,-2 0.66,0 1.32,0 2,0 0,-0.66 0,-1.32 0,-2 0.66,0 1.32,0 2,0 0,-0.66 0,-1.32 0,-2 0.66,0 1.32,0 2,0 0,-0.66 0,-1.32 0,-2 0.66,0 1.32,0 2,0 0,-0.66 0,-1.32 0,-2 0.66,0 1.32,0 2,0 0,-0.66 0,-1.32 0,-2 0.66,0 1.32,0 2,0 0,-0.66 0,-1.32 0,-2 0.66,0 1.32,0 2,0 0,-0.66 0,-1.32 0,-2 0.66,0 1.32,0 2,0 0,-0.66 0,-1.32 0,-2 0.66,0 1.32,0 2,0 0,-0.66 0,-1.32 0,-2 0.66,0 1.32,0 2,0 0,-0.66 0,-1.32 0,-2 0.66,0 1.32,0 2,0 0,-0.66 0,-1.32 0,-2 0.66,0 1.32,0 2,0 0,-0.66 0,-1.32 0,-2 0.66,0 1.32,0 2,0 0,-0.66 0,-1.32 0,-2 0.66,0 1.32,0 2,0 0,-0.66 0,-1.32 0,-2 0.66,0 1.32,0 2,0 0,-0.66 0,-1.32 0,-2 0.66,0 1.32,0 2,0 0,-0.66 0,-1.32 0,-2 0.66,0 1.32,0 2,0 0,-0.66 0,-1.32 0,-2 0.66,0 1.32,0 2,0 0,-0.66 0,-1.32 0,-2 0.66,0 1.32,0 2,0 0,-0.66 0,-1.32 0,-2 0.66,0 1.32,0 2,0 0,-0.66 0,-1.32 0,-2 1.32,0 2.64,0 4,0 0,-0.66 0,-1.32 0,-2 0.66,0 1.32,0 2,0 0,-0.66 0,-1.32 0,-2 0.66,0 1.32,0 2,0 0,-0.66 0,-1.32 0,-2 0.66,0 1.32,0 2,0 0,-0.66 0,-1.32 0,-2 0.66,0 1.32,0 2,0 0,-0.66 0,-1.32 0,-2 0.66,0 1.32,0 2,0 0,-0.66 0,-1.32 0,-2 1.32,0 2.64,0 4,0 0,-0.66 0,-1.32 0,-2 0.66,0 1.32,0 2,0 0,-0.66 0,-1.32 0,-2 0.66,0 1.32,0 2,0 0,-0.66 0,-1.32 0,-2 0.66,0 1.32,0 2,0 0,-0.66 0,-1.32 0,-2 1.32,0 2.64,0 4,0 0,-0.66 0,-1.32 0,-2 0.66,0 1.32,0 2,0 0,-0.66 0,-1.32 0,-2 0.66,0 1.32,0 2,0 0,-0.66 0,-1.32 0,-2 0.66,0 1.32,0 2,0 0,-0.66 0,-1.32 0,-2 1.32,0 2.64,0 4,0 0,-0.66 0,-1.32 0,-2 0.66,0 1.32,0 2,0 0,-0.66 0,-1.32 0,-2 0.66,0 1.32,0 2,0 0,-0.66 0,-1.32 0,-2 1.32,0 2.64,0 4,0 0,-0.66 0,-1.32 0,-2 0.66,0 1.32,0 2,0 0,-0.66 0,-1.32 0,-2 0.66,0 1.32,0 2,0 0,-0.66 0,-1.32 0,-2 1.32,0 2.64,0 4,0 0,-0.66 0,-1.32 0,-2 0.66,0 1.32,0 2,0 0,-0.66 0,-1.32 0,-2 1.32,0 2.64,0 4,0 0,-0.66 0,-1.32 0,-2 0.66,0 1.32,0 2,0 0,-0.66 0,-1.32 0,-2 1.32,0 2.64,0 4,0 0,-0.66 0,-1.32 0,-2 0.66,0 1.32,0 2,0 0,-0.66 0,-1.32 0,-2 1.32,0 2.64,0 4,0 0,-0.66 0,-1.32 0,-2 0.66,0 1.32,0 2,0 0,-0.66 0,-1.32 0,-2 1.32,0 2.64,0 4,0 0,-0.66 0,-1.32 0,-2 0.66,0 1.32,0 2,0 0,-0.66 0,-1.32 0,-2 1.32,0 2.64,0 4,0 0,-0.66 0,-1.32 0,-2 0.66,0 1.32,0 2,0 0,-0.66 0,-1.32 0,-2 1.32,0 2.64,0 4,0 0,-0.66 0,-1.32 0,-2 1.32,0 2.64,0 4,0 0,-0.66 0,-1.32 0,-2 0.66,0 1.32,0 2,0 0,-0.66 0,-1.32 0,-2 1.32,0 2.64,0 4,0 0,-0.66 0,-1.32 0,-2 1.32,0 2.64,0 4,0 0,-0.66 0,-1.32 0,-2 0.66,0 1.32,0 2,0 0,-0.66 0,-1.32 0,-2 1.32,0 2.64,0 4,0 0,-0.66 0,-1.32 0,-2 1.32,0 2.64,0 4,0 0,-0.66 0,-1.32 0,-2 1.32,0 2.64,0 4,0 0,-0.66 0,-1.32 0,-2 0.66,0 1.32,0 2,0 0,-0.66 0,-1.32 0,-2 1.32,0 2.64,0 4,0 0,-0.66 0,-1.32 0,-2 1.32,0 2.64,0 4,0 0,-0.66 0,-1.32 0,-2 1.32,0 2.64,0 4,0 0,-0.66 0,-1.32 0,-2 1.32,0 2.64,0 4,0 0,-0.66 0,-1.32 0,-2 1.32,0 2.64,0 4,0 0,-0.66 0,-1.32 0,-2 1.32,0 2.64,0 4,0 0,-0.66 0,-1.32 0,-2 1.32,0 2.64,0 4,0 0,-0.66 0,-1.32 0,-2 1.32,0 2.64,0 4,0 0,-0.66 0,-1.32 0,-2 1.32,0 2.64,0 4,0 0,-0.66 0,-1.32 0,-2 1.98,0 3.96,0 6,0 0,-0.66 0,-1.32 0,-2 1.32,0 2.64,0 4,0 0,-0.66 0,-1.32 0,-2 1.32,0 2.64,0 4,0 0,-0.66 0,-1.32 0,-2 1.32,0 2.64,0 4,0 0,-0.66 0,-1.32 0,-2 1.98,0 3.96,0 6,0 0,-0.66 0,-1.32 0,-2 1.32,0 2.64,0 4,0 0,-0.66 0,-1.32 0,-2 1.98,0 3.96,0 6,0 0,-0.66 0,-1.32 0,-2 1.32,0 2.64,0 4,0 0,-0.66 0,-1.32 0,-2 1.98,0 3.96,0 6,0 0,-0.66 0,-1.32 0,-2 1.98,0 3.96,0 6,0 0,-0.66 0,-1.32 0,-2 1.32,0 2.64,0 4,0 0,-0.66 0,-1.32 0,-2 1.98,0 3.96,0 6,0 0,-0.66 0,-1.32 0,-2 1.98,0 3.96,0 6,0 0,-0.66 0,-1.32 0,-2 1.98,0 3.96,0 6,0 0,-0.66 0,-1.32 0,-2 1.98,0 3.96,0 6,0 0,-0.66 0,-1.32 0,-2 1.98,0 3.96,0 6,0 0,-0.66 0,-1.32 0,-2 2.64,0 5.28,0 8,0 0,-0.66 0,-1.32 0,-2 1.98,0 3.96,0 6,0 0,-0.66 0,-1.32 0,-2 2.64,0 5.28,0 8,0 0,-0.66 0,-1.32 0,-2 2.64,0 5.28,0 8,0 0,-0.66 0,-1.32 0,-2 2.64,0 5.28,0 8,0 0,-0.66 0,-1.32 0,-2 2.64,0 5.28,0 8,0 0,-0.66 0,-1.32 0,-2 3.3,0 6.6,0 10,0 0,-0.66 0,-1.32 0,-2 3.3,0 6.6,0 10,0 0,-0.66 0,-1.32 0,-2 3.3,0 6.6,0 10,0 0,-0.66 0,-1.32 0,-2 3.96,0 7.92,0 12,0 0,-0.66 0,-1.32 0,-2 4.62,0 9.24,0 14,0 0,-0.66 0,-1.32 0,-2 5.94,0 11.88,0 18,0 0,-0.66 0,-1.32 0,-2 7.26,0 14.52,0 22,0 0,-0.66 0,-1.32 0,-2 z"
     fill="#feffff"
     id="path1" />
</svg>
